HIERARCHY
ROOT Hips
{
	OFFSET	0.00	0.00	0.00
	CHANNELS 6 Xposition Yposition Zposition Zrotation Xrotation Yrotation
	JOINT LeftUpLeg
	{
		OFFSET	 0.126116	-0.014019	-0.065224
		CHANNELS 3 Zrotation Xrotation Yrotation
		JOINT LeftLeg
		{
			OFFSET	 0.000000	 0.000000	 0.569914
			CHANNELS 3 Zrotation Xrotation Yrotation
			JOINT LeftFoot
			{
				OFFSET	 0.000000	 0.000000	 0.544423
				CHANNELS 3 Zrotation Xrotation Yrotation
				JOINT LeftToeBase
				{
					OFFSET	 0.000000	 0.000000	 0.207117
					CHANNELS 3 Zrotation Xrotation Yrotation
					End Site
					{
						OFFSET	 0.000000	 0.000000	 0.207117
					}
				}
			}
		}
	}
	JOINT RightUpLeg
	{
		OFFSET	-0.124023	-0.008373	-0.065224
		CHANNELS 3 Zrotation Xrotation Yrotation
		JOINT RightLeg
		{
			OFFSET	 0.000000	 0.000000	 0.570047
			CHANNELS 3 Zrotation Xrotation Yrotation
			JOINT RightFoot
			{
				OFFSET	 0.000000	 0.000000	 0.544354
				CHANNELS 3 Zrotation Xrotation Yrotation
				JOINT RightToeBase
				{
					OFFSET	 0.000000	 0.000000	 0.207540
					CHANNELS 3 Zrotation Xrotation Yrotation
					End Site
					{
						OFFSET	 0.000000	 0.000000	 0.207540
					}
				}
			}
		}
	}
	JOINT Spine
	{
		OFFSET	 0.000184	-0.007763	 0.117403
		CHANNELS 3 Zrotation Xrotation Yrotation
		JOINT Spine1
		{
			OFFSET	 0.000000	 0.000000	 0.137269
			CHANNELS 3 Zrotation Xrotation Yrotation
			JOINT Spine2
			{
				OFFSET	 0.000000	 0.000000	 0.156879
				CHANNELS 3 Zrotation Xrotation Yrotation
				JOINT LeftShoulder
				{
					OFFSET	 0.080501	-0.002496	 0.160144
					CHANNELS 3 Zrotation Xrotation Yrotation
					JOINT LeftArm
					{
						OFFSET	 0.000000	 0.000000	 0.164363
						CHANNELS 3 Zrotation Xrotation Yrotation
						JOINT LeftForeArm
						{
							OFFSET	 0.000000	 0.000000	 0.364576
							CHANNELS 3 Zrotation Xrotation Yrotation
							JOINT LeftHand
							{
								OFFSET	 0.000000	 0.000000	 0.360812
								CHANNELS 3 Zrotation Xrotation Yrotation
								JOINT LeftHandIndex1
								{
									OFFSET	 0.000000	 0.000000	 0.086006
									CHANNELS 3 Zrotation Xrotation Yrotation
									JOINT LeftHandIndex2
									{
										OFFSET	 0.000000	 0.000000	 0.047236
										CHANNELS 3 Zrotation Xrotation Yrotation
										JOINT LeftHandIndex3
										{
											OFFSET	-0.004284	-0.000551	 0.038166
											CHANNELS 3 Zrotation Xrotation Yrotation
											End Site
											{
												OFFSET	-0.004284	-0.000551	 0.038166
											}
										}
									}
								}
							}
						}
					}
				}
				JOINT Neck
				{
					OFFSET	 0.000000	 0.000000	 0.176489
					CHANNELS 3 Zrotation Xrotation Yrotation
					JOINT Head
					{
						OFFSET	 0.000000	-0.001747	 0.077940
						CHANNELS 3 Zrotation Xrotation Yrotation
						End Site
						{
							OFFSET	 0.000000	-0.001747	 0.077940
						}
					}
				}
				JOINT RightShoulder
				{
					OFFSET	-0.080363	 0.000306	 0.159706
					CHANNELS 3 Zrotation Xrotation Yrotation
					JOINT RightArm
					{
						OFFSET	 0.000000	 0.000000	 0.164196
						CHANNELS 3 Zrotation Xrotation Yrotation
						JOINT RightForeArm
						{
							OFFSET	 0.000000	 0.000000	 0.365611
							CHANNELS 3 Zrotation Xrotation Yrotation
							JOINT RightHand
							{
								OFFSET	 0.000000	 0.000000	 0.360648
								CHANNELS 3 Zrotation Xrotation Yrotation
								JOINT RightHandIndex1
								{
									OFFSET	 0.000000	 0.000000	 0.069977
									CHANNELS 3 Zrotation Xrotation Yrotation
									JOINT RightHandIndex2
									{
										OFFSET	 0.000000	 0.000000	 0.052305
										CHANNELS 3 Zrotation Xrotation Yrotation
										JOINT RightHandIndex3
										{
											OFFSET	 0.009002	-0.000782	 0.042196
											CHANNELS 3 Zrotation Xrotation Yrotation
											End Site
											{
												OFFSET	 0.009002	-0.000782	 0.042196
											}
										}
									}
								}
							}
						}
					}
				}
			}
		}
	}
}
MOTION
Frames:    11
Frame Time: 0.03333334
 0.000175	 0.041628	 1.275301	-0.110048	 1.993893	 0.459354	 6.595470	-5.260388	 177.905400	 2.384544	-13.103660	 0.635525	-0.845333	 71.115940	 0.631232	-2.385833	 28.452750	 0.000004	 1.053507	-4.871458	-178.141000	-0.808500	-11.793410	 0.888199	 5.781943	 70.140290	 0.519470	 2.384659	 28.388700	-0.000001	-7.018352	 6.030615	 1.265796	-3.010077	-2.109077	-0.086987	 9.426000	 4.637532	-0.451543	-91.289340	 70.639660	-178.118400	-9.664942	 3.812697	-24.151860	 26.050740	-0.128484	-0.733026	-11.784850	-28.666090	-4.685161	-2.027600	 6.559038	 9.033609	-5.188889	 0.308190	 3.541030	-5.234859	 0.342567	 0.430617	 4.130455	 15.559960	-5.992219	 4.459713	-11.960780	 2.142142	 89.177950	 69.853780	 177.716900	 9.720480	 8.462856	 4.951437	-25.394450	-9.536768	 27.644660	 9.856889	-29.108200	 7.643473	 1.803333	 3.979147	-15.098590	 4.898592	 3.004813	-9.310344	 5.224449	 0.395017	 2.014677
-0.000375	 0.049557	 1.275161	-0.075134	 2.849107	 0.564542	 6.760816	-7.001486	 177.859100	 2.196373	-13.804690	 0.623886	-0.168040	 70.620830	 0.097471	-2.385833	 28.452750	 0.000004	 0.733231	-6.479549	-178.263600	-0.764728	-12.276100	 0.933356	 5.377157	 69.678400	 0.927774	 2.384659	 28.388700	-0.000001	-15.313340	 6.737357	 1.328237	-3.131059	-2.378861	 0.247683	 9.642318	 6.388138	-0.861143	-91.057350	 69.033550	-177.574200	-6.713863	 6.666819	-28.642890	 21.100440	 0.138080	-3.192229	-16.605480	-39.499080	-9.717302	-2.027600	 6.559038	 9.033609	-5.188889	 0.308190	 3.541030	-5.234859	 0.342567	 0.430617	 4.607634	 19.757530	-7.313900	 4.889636	-15.152710	 2.235489	 88.861600	 67.646090	 177.062900	 7.427487	 11.896400	 6.494282	-21.577250	-7.903979	 32.521370	 14.489660	-38.970810	 11.531040	 1.803333	 3.979147	-15.098590	 4.898592	 3.004813	-9.310344	 5.224449	 0.395017	 2.014677
-0.000745	 0.054245	 1.274661	-0.044219	 3.358606	 0.638862	 6.801764	-8.190037	 177.820400	 2.177743	-14.536860	 0.651589	 0.144832	 70.587700	-0.219097	-2.385833	 28.452750	 0.000004	 0.565313	-7.574512	-178.370500	-0.747764	-12.850660	 0.980104	 5.170955	 69.570880	 1.152388	 2.384659	 28.388700	-0.000001	-18.614480	 7.056929	 1.362382	-3.120511	-2.036040	 0.415009	 9.598398	 6.891592	-1.005786	-90.969170	 68.430170	-177.392700	-5.304786	 8.375160	-31.084700	 18.946710	 0.361687	-4.217550	-19.503610	-43.626880	-13.046050	-2.027600	 6.559038	 9.033609	-5.188889	 0.308190	 3.541030	-5.234859	 0.342567	 0.430617	 4.701935	 21.491040	-7.837317	 5.102292	-16.567320	 2.321594	 88.713450	 66.617820	 176.801300	 6.113607	 13.913350	 7.995670	-20.101490	-6.783208	 33.599050	 16.835070	-42.713470	 14.028260	 1.803333	 3.979147	-15.098590	 4.898592	 3.004813	-9.310344	 5.224449	 0.395017	 2.014677
-0.001192	 0.059269	 1.274106	-0.007063	 3.925915	 0.711749	 6.771312	-9.523481	 177.781000	 2.139822	-15.405910	 0.694216	 0.469162	 70.627510	-0.586025	-2.385833	 28.452750	 0.000004	 0.390414	-8.819818	-178.489400	-0.733350	-13.561340	 1.036705	 4.951419	 69.502430	 1.400445	 2.384659	 28.388700	-0.000001	-21.619670	 7.371914	 1.386349	-3.046954	-1.238594	 0.642986	 9.469913	 7.141212	-1.132451	-90.892940	 67.901150	-177.245900	-4.148254	 9.870975	-33.583000	 16.848340	 0.638511	-5.186369	-22.869030	-47.107050	-16.951730	-2.027600	 6.559038	 9.033609	-5.188889	 0.308190	 3.541030	-5.234859	 0.342567	 0.430617	 4.729935	 23.108540	-8.303358	 5.311064	-17.935870	 2.433475	 88.566430	 65.595490	 176.561300	 4.778508	 15.540390	 9.615206	-18.642650	-5.682407	 34.877480	 19.348160	-45.877270	 16.891600	 1.803333	 3.979147	-15.098590	 4.898592	 3.004813	-9.310344	 5.224449	 0.395017	 2.014677
-0.001713	 0.065776	 1.273734	 0.036936	 4.665271	 0.787774	 6.872465	-11.138270	 177.788500	 2.228385	-16.257950	 0.735561	 0.907146	 70.538430	-1.079307	-2.385833	 28.452760	 0.000004	 0.168700	-10.322660	-178.623000	-0.780374	-14.191100	 1.072284	 4.652064	 69.262500	 1.803814	 2.384659	 28.388700	-0.000001	-24.803830	 7.772767	 1.443954	-2.899426	 0.223487	 0.916089	 9.243302	 7.177828	-1.248427	-90.824230	 67.215630	-177.155900	-2.955731	 11.290650	-36.660490	 14.296280	 1.022515	-6.266040	-27.332630	-50.166130	-22.049590	-2.027600	 6.559038	 9.033609	-5.188889	 0.308190	 3.541030	-5.234859	 0.342567	 0.430617	 4.710268	 24.777030	-8.733039	 5.497097	-19.375950	 2.527068	 88.424470	 64.366420	 176.385000	 3.143934	 16.955600	 11.532890	-16.918890	-4.412739	 36.865960	 22.410770	-48.688710	 20.560670	 1.803333	 3.979147	-15.098590	 4.898592	 3.004813	-9.310344	 5.224449	 0.395017	 2.014677
-0.002182	 0.072054	 1.273785	 0.083905	 5.463097	 0.861886	 6.852312	-12.620500	 177.797700	 2.199540	-16.734780	 0.753762	 1.356102	 70.295570	-1.569630	-2.385832	 28.452790	-0.000001	-0.074768	-11.669400	-178.747800	-0.990127	-14.379330	 1.033841	 4.384746	 68.851660	 2.337948	 2.384659	 28.388700	-0.000001	-27.210390	 8.063189	 1.431715	-2.734447	 1.671770	 1.227047	 8.932951	 7.027510	-1.386432	-90.829750	 66.462200	-177.291600	-1.877855	 12.198280	-39.255420	 11.686220	 1.397903	-7.136216	-31.769610	-51.826370	-26.727800	-2.027600	 6.559038	 9.033609	-5.188889	 0.308190	 3.541030	-5.234859	 0.342567	 0.430617	 4.510403	 25.573760	-8.783228	 5.518940	-20.177450	 2.485110	 88.402590	 63.246190	 176.502300	 1.425064	 17.822050	 13.281560	-15.305630	-3.114739	 38.410820	 25.127340	-50.211470	 23.932070	 1.803333	 3.979147	-15.098590	 4.898592	 3.004813	-9.310344	 5.224449	 0.395017	 2.014677
-0.002794	 0.079208	 1.273893	 0.133230	 6.387792	 0.943529	 6.744321	-14.292710	 177.803000	 2.196529	-17.238850	 0.774891	 1.703843	 70.000600	-2.077197	-2.385832	 28.452790	-0.000001	-0.486667	-13.201310	-178.914900	-1.272558	-14.575260	 0.986278	 3.998686	 68.381400	 2.930602	 2.384659	 28.388700	-0.000001	-29.607590	 8.381370	 1.408955	-2.519506	 3.717768	 1.595685	 8.541675	 6.687158	-1.519412	-90.840850	 65.615620	-177.439500	-0.875086	 13.006980	-42.340760	 8.839153	 1.857991	-8.055054	-36.406730	-52.758450	-31.635490	-2.027600	 6.559038	 9.033609	-5.188889	 0.308190	 3.541030	-5.234859	 0.342567	 0.430617	 4.285268	 26.469790	-8.831518	 5.510970	-21.067750	 2.437404	 88.384690	 61.987520	 176.627800	-0.478257	 18.585590	 15.727020	-13.628290	-1.608808	 39.853860	 27.795590	-51.109020	 27.369070	 1.803333	 3.979147	-15.098590	 4.898592	 3.004813	-9.310344	 5.224449	 0.395017	 2.014677
-0.003257	 0.085843	 1.273534	 0.251029	 7.398601	 0.992097	 6.615565	-16.132100	 177.850800	 2.152113	-18.016480	 0.794941	 2.247103	 69.804920	-2.671004	-2.385832	 28.452790	-0.000001	-0.745271	-14.949840	-179.034300	-1.328795	-15.204420	 1.002570	 3.672984	 68.206470	 3.400547	 2.384659	 28.388700	-0.000001	-31.495010	 8.630816	 1.345449	-2.342052	 4.937749	 1.792879	 8.142128	 6.471075	-1.550902	-91.108930	 65.250660	-178.206000	-0.159012	 13.880550	-43.957960	 6.731222	 2.294648	-8.826835	-39.794030	-52.672340	-35.188750	-2.027600	 6.559038	 9.033609	-5.188889	 0.308190	 3.541030	-5.234859	 0.342567	 0.430617	 4.042078	 26.725810	-8.800338	 5.405287	-21.529250	 2.403772	 88.630400	 61.493580	 177.269800	-2.280879	 19.687230	 17.226340	-12.343490	-0.320123	 40.942740	 29.676200	-51.314670	 29.887210	 1.803333	 3.979147	-15.098590	 4.898592	 3.004813	-9.310344	 5.224449	 0.395017	 2.014677
-0.003876	 0.092055	 1.272973	 0.377052	 8.432297	 1.039813	 6.465010	-18.011510	 177.878200	 2.112545	-18.955180	 0.821997	 2.798509	 69.732510	-3.278574	-2.385833	 28.452760	 0.000004	-1.048159	-16.765520	-179.175100	-1.414880	-16.090030	 1.035500	 3.435548	 68.236480	 3.770071	 2.384659	 28.388700	-0.000001	-33.114140	 8.885622	 1.267781	-2.163013	 6.138853	 1.960409	 7.718053	 6.242162	-1.557630	-91.420630	 64.950790	-179.057500	 0.259951	 14.453940	-45.222570	 4.764473	 2.747410	-9.541997	-42.371750	-52.010600	-37.899120	-2.027600	 6.559038	 9.033609	-5.188889	 0.308190	 3.541030	-5.234859	 0.342567	 0.430617	 3.794265	 26.895740	-8.757282	 5.263972	-21.930300	 2.366289	 88.919490	 61.102470	 177.982800	-3.996775	 20.599880	 18.713860	-11.169670	 0.932482	 42.070940	 30.942970	-50.987410	 31.755040	 1.803333	 3.979147	-15.098590	 4.898592	 3.004813	-9.310344	 5.224449	 0.395017	 2.014677
-0.004760	 0.098628	 1.272369	 0.489456	 9.697461	 1.085181	 6.305473	-20.176190	 177.899900	 2.096541	-20.105380	 0.864355	 3.429388	 69.832400	-4.011188	-2.385833	 28.452760	 0.000004	-1.351313	-18.886970	-179.320100	-1.511846	-17.281450	 1.080984	 3.178297	 68.520550	 4.174090	 2.384659	 28.388700	-0.000001	-34.641540	 9.193293	 1.190230	-1.933741	 7.854856	 2.159490	 7.197461	 5.746946	-1.490137	-91.827320	 64.816110	 179.865300	 0.443974	 14.946710	-46.377980	 2.920563	 3.282447	-10.310170	-44.045800	-50.781510	-39.723520	-2.027600	 6.559038	 9.033609	-5.188889	 0.308190	 3.541030	-5.234859	 0.342567	 0.430617	 3.525006	 26.674280	-8.783471	 5.028389	-22.143520	 2.279718	 89.304860	 60.726250	 178.898100	-5.855709	 21.574920	 20.308800	-9.848092	 2.401372	 43.893550	 31.847360	-50.105510	 33.100750	 1.803333	 3.979147	-15.098590	 4.898592	 3.004813	-9.310344	 5.224449	 0.395017	 2.014677
-0.005657	 0.104268	 1.271888	 0.551936	 10.911440	 1.108267	 6.186150	-22.124560	 177.934000	 2.113620	-21.089460	 0.910936	 3.994352	 70.004860	-4.704866	-2.385832	 28.452790	-0.000001	-1.554976	-20.826920	-179.422600	-1.594843	-18.367830	 1.120405	 2.869160	 68.885330	 4.619369	 2.384659	 28.388700	-0.000001	-35.690840	 9.474966	 1.143776	-1.710606	 9.401026	 2.265355	 6.716228	 5.191782	-1.324246	-92.237290	 64.970900	 178.776300	 0.429001	 15.376790	-47.077780	 1.800418	 3.759252	-10.933940	-44.341250	-49.424060	-40.167550	-2.027600	 6.559038	 9.033609	-5.188889	 0.308190	 3.541030	-5.234859	 0.342567	 0.430617	 3.308356	 25.937020	-8.911332	 4.742699	-22.011440	 2.149241	 89.709550	 60.490250	 179.833700	-7.390721	 22.422160	 21.644170	-8.679047	 3.785097	 45.611660	 32.279780	-48.984560	 33.606910	 1.803333	 3.979147	-15.098590	 4.898592	 3.004813	-9.310344	 5.224449	 0.395017	 2.014677
